<?xml version="1.0" encoding="utf-8"?>
<!-- Generator: Adobe Illustrator 22.1.0, SVG Export Plug-In . SVG Version: 6.00 Build 0)  -->
<svg version="1.1" xmlns="http://www.w3.org/2000/svg" xmlns:xlink="http://www.w3.org/1999/xlink" x="0px" y="0px"
	 viewBox="0 0 2304 1000" style="enable-background:new 0 0 2304 1000;" xml:space="preserve">
<style type="text/css">
	.st0{display:none;}
	.st1{display:inline;fill:#DCE3E9;}
	.st2{display:inline;fill:url(#SVGID_1_);}
	.st3{fill:#DCE3E9;}
	.st4{fill:#B9C4DD;}
</style>
<g id="Layer_1" class="st0">
	<rect class="st1" width="2303.9" height="1000"/>
	<linearGradient id="SVGID_1_" gradientUnits="userSpaceOnUse" x1="1151.9694" y1="998.6494" x2="1151.9694" y2="558.4418">
		<stop  offset="0" style="stop-color:#D0D7DF"/>
		<stop  offset="1" style="stop-color:#B9C4DE"/>
	</linearGradient>
	<path class="st2" d="M2222.9,848.5V751h-85.5v105l-28.5,28.5v-172h-87v241h-93v-165h-96v99h-72v-214l-120-60v202.2h-57V682.5h-69
		v-54h-219v208h-51v-106H1152v163h-84.2v-77.8l-72,1V559.4l-96-1v121h-63v211h-51v-83h-153v-59h-186v118h-156v-211h-69v298h-60v-189
		h-93v150h-42v-67H0v151.2h2303.9V848.5H2222.9z M128,807.2l-7.3-4.2l7.3-4.2V807.2z M138,805.2l-6.7,3.9v-12.1l-10.5-6.1l6.7-3.9
		c0.3-0.2,0.8-0.2,1.1,0l10,5.7l0,11.5C138.5,804.6,138.3,805,138,805.2z M149.8,802.4c0,0.3-0.2,0.8-0.5,0.9l-7.5,4.3v-16.8
		l-14.6-8.4l7.5-4.3c0.3-0.2,0.8-0.2,1.1,0l14,8.1L149.8,802.4z M956.6,601.2l-7.3-4.2l7.3-4.2V601.2z M966.6,599.2l-6.7,3.9v-12.1
		l-10.5-6.1l6.7-3.9c0.3-0.2,0.8-0.2,1.1,0l10,5.7l0,11.5C967.1,598.6,966.9,599,966.6,599.2z M978.5,596.4c0,0.3-0.2,0.8-0.5,0.9
		l-7.5,4.3v-16.8l-14.6-8.4l7.5-4.3c0.3-0.2,0.8-0.2,1.1,0l14,8.1L978.5,596.4z M1721.3,710.1l-7.3-4.2l7.3-4.2V710.1z M1731.2,708
		l-6.7,3.9v-12.1l-10.5-6.1l6.7-3.9c0.3-0.2,0.8-0.2,1.1,0l10,5.7l0,11.5C1731.8,707.5,1731.5,707.9,1731.2,708z M1743.1,705.2
		c0,0.3-0.2,0.8-0.5,0.9l-7.5,4.3v-16.8l-14.6-8.4l7.5-4.3c0.3-0.2,0.8-0.2,1.1,0l14,8.1L1743.1,705.2z"/>
</g>
<g id="Layer_1_copy">
	<rect y="-1000" class="st3" width="2303.9" height="2000"/>
	<path class="st4" d="M2222.9,848.5V751h-85.5v105l-28.5,28.5v-172h-87v241h-93v-165h-96v99h-72v-214l-120-60v202.2h-57V682.5h-69
		v-54h-219v208h-51v-106H1152v163h-84.2v-77.8l-72,1V559.4l-96-1v121h-63v211h-51v-83h-153v-59h-186v118h-156v-211h-69v298h-60v-189
		h-93v150h-42v-67H0v151.2h2303.9V848.5H2222.9z M128,807.2l-7.3-4.2l7.3-4.2V807.2z M138,805.2l-6.7,3.9v-12.1l-10.5-6.1l6.7-3.9
		c0.3-0.2,0.8-0.2,1.1,0l10,5.7l0,11.5C138.5,804.6,138.3,805,138,805.2z M149.8,802.4c0,0.3-0.2,0.8-0.5,0.9l-7.5,4.3v-16.8
		l-14.6-8.4l7.5-4.3c0.3-0.2,0.8-0.2,1.1,0l14,8.1L149.8,802.4z M956.6,601.2l-7.3-4.2l7.3-4.2V601.2z M966.6,599.2l-6.7,3.9v-12.1
		l-10.5-6.1l6.7-3.9c0.3-0.2,0.8-0.2,1.1,0l10,5.7l0,11.5C967.1,598.6,966.9,599,966.6,599.2z M978.5,596.4c0,0.3-0.2,0.8-0.5,0.9
		l-7.5,4.3v-16.8l-14.6-8.4l7.5-4.3c0.3-0.2,0.8-0.2,1.1,0l14,8.1L978.5,596.4z M1721.3,710.1l-7.3-4.2l7.3-4.2V710.1z M1731.2,708
		l-6.7,3.9v-12.1l-10.5-6.1l6.7-3.9c0.3-0.2,0.8-0.2,1.1,0l10,5.7l0,11.5C1731.8,707.5,1731.5,707.9,1731.2,708z M1743.1,705.2
		c0,0.3-0.2,0.8-0.5,0.9l-7.5,4.3v-16.8l-14.6-8.4l7.5-4.3c0.3-0.2,0.8-0.2,1.1,0l14,8.1L1743.1,705.2z"/>
</g>
</svg>
