<svg id="Layer_1" data-name="Layer 1" xmlns="http://www.w3.org/2000/svg" viewBox="0 0 34 34"><defs><style>.cls-1{fill:#1a9cad;}.cls-2{fill:#fff;}</style></defs><title>icons_view</title><rect class="cls-1" width="34" height="34"/><rect class="cls-2" x="18" y="4.98" width="11"/><circle class="cls-2" cx="8" cy="21.48" r="1.5"/><path class="cls-2" d="M11.5,19a3,3,0,1,0-3-3A3,3,0,0,0,11.5,19Zm0-4a1,1,0,1,1-1,1A1,1,0,0,1,11.5,15Z"/><path class="cls-2" d="M18,5h0V2H16V27H5v2H16v3h2V29h7l4-4V5Zm0,8h3v3H18Zm0,5h3v3H18Zm9,6.17L24.17,27H18V23h3v2l2-2,2-2H23V18l2-2H23V13l2-2H23V9H21v2H18V7h9Z"/></svg>