<svg id="Layer_1" data-name="Layer 1" xmlns="http://www.w3.org/2000/svg" viewBox="0 0 34 34"><defs><style>.cls-1{fill:none;}.cls-2{fill:#1a9cad;}</style></defs><title>icons_view</title><rect class="cls-1" x="18" y="17.98" width="3" height="3"/><circle class="cls-1" cx="11.5" cy="15.98" r="1"/><rect class="cls-1" x="18" y="12.98" width="3" height="3"/><rect class="cls-1" x="18" y="4.98" width="11"/><polygon class="cls-1" points="18 10.98 21 10.98 21 8.98 23 8.98 23 10.98 25 10.98 23 12.98 23 15.98 25 15.98 23 17.98 23 20.98 25 20.98 23 22.98 21 24.98 21 22.98 18 22.98 18 26.98 24.17 26.98 27 24.15 27 6.98 18 6.98 18 8.98 18 10.98"/><circle class="cls-2" cx="8" cy="21.48" r="1.5"/><circle class="cls-1" cx="11.5" cy="15.98" r="1"/><path class="cls-2" d="M11.5,13a3,3,0,1,0,3,3A3,3,0,0,0,11.5,13Zm0,4a1,1,0,1,1,1-1A1,1,0,0,1,11.5,17Z"/><path class="cls-2" d="M18,5h0V2H16V27H5v2H16v3h2V29h7l4-4V5Zm0,8h3v3H18Zm0,5h3v3H18Zm9,6.17L24.17,27H18V23h3v2l2-2,2-2H23V18l2-2H23V13l2-2H23V9H21v2H18V7h9Z"/></svg>