<svg id="Layer_1" data-name="Layer 1" xmlns="http://www.w3.org/2000/svg" viewBox="0 0 34 34"><defs><style>.cls-1{fill:#1a9cad;}.cls-2{fill:#fff;}</style></defs><title>icons_view</title><rect class="cls-1" x="-0.13" y="-0.02" width="34" height="34"/><path class="cls-2" d="M11,25l2-2h3v2l2-2h3v2l2-2,2-2H23V18l2-2H23V13l2-2H23V9H21v2H18V9H16v2H13V9H11v2H9v2h2v3H9v2h2v3H9v2h2Zm7-12h3v3H18Zm0,5h3v3H18Zm-5-5h3v3H13Zm0,5h3v3H13Z"/><path class="cls-2" d="M5,5V29H25l4-4V5ZM27,24.17,24.17,27H7V7H27Z"/></svg>