<svg id="Layer_1" data-name="Layer 1" xmlns="http://www.w3.org/2000/svg" viewBox="0 0 34 34"><defs><style>.cls-1{fill:#1a9cad;}</style></defs><title>icons_view</title><polygon class="cls-1" points="5 27 5 29 27 29 29 27 5 27"/><circle class="cls-1" cx="9.5" cy="21.5" r="1.5"/><circle class="cls-1" cx="25" cy="14" r="2"/><path class="cls-1" d="M20,25a4,4,0,1,0-4-4A4,4,0,0,0,20,25Zm0-6.33A2.33,2.33,0,1,1,17.67,21,2.33,2.33,0,0,1,20,18.67Z"/><path class="cls-1" d="M13,19a3,3,0,1,0-3-3A3,3,0,0,0,13,19Zm0-4a1,1,0,1,1-1,1A1,1,0,0,1,13,15Z"/></svg>